<svg xmlns="http://www.w3.org/2000/svg" viewBox="0 0 57.630682 55.124997"><g fill="#fff"><path d="M7.439 0C3.342 0 0 3.342 0 7.439v26.466c0 4.097 3.342 7.439 7.439 7.439h7.595v12.528c0 .514.295.987.783 1.175.15.062.32.078.47.078.35 0 .702-.116.94-.392l12.136-13.39 20.829-.078c4.097 0 7.439-3.342 7.439-7.438V7.439C57.63 3.342 54.289 0 50.19 0H7.44zm0 2.506h42.753a4.94 4.94 0 0 1 4.933 4.933v26.388a4.94 4.94 0 0 1-4.933 4.933l-21.377.078c-.35 0-.701.168-.94.43L17.54 50.624V40.09c0-.69-.564-1.253-1.253-1.253H7.439a4.94 4.94 0 0 1-4.933-4.933V7.439a4.94 4.94 0 0 1 4.933-4.933z"/><path d="M24.723 15.354c0 .715.223 1.304.67 1.769.464.446 1.295.875 2.492 1.286v-5.707c-1 .035-1.778.25-2.332.643-.553.375-.83 1.045-.83 2.01m7.931 9.083c0-.733-.232-1.322-.697-1.769-.464-.464-1.312-.902-2.545-1.313v5.949c.982-.036 1.768-.286 2.358-.75.59-.465.884-1.17.884-2.117m-3 7.53h-2.037v-2.6c-1-.09-1.983-.286-2.948-.59-.947-.32-1.75-.732-2.411-1.232l.75-2.117c.714.5 1.5.902 2.358 1.206.857.304 1.697.5 2.519.59V20.9c-2.019-.572-3.44-1.268-4.26-2.09-.805-.84-1.207-1.956-1.207-3.35 0-1.554.43-2.75 1.287-3.59.875-.84 2.179-1.313 3.912-1.42v-2.6h2.036v2.627c.893.089 1.75.268 2.572.536.84.25 1.546.571 2.117.964l-.75 2.17a9.556 9.556 0 0 0-2.036-.91 10.21 10.21 0 0 0-2.144-.456v6.11c2.072.607 3.519 1.321 4.34 2.143.84.822 1.26 1.902 1.26 3.242 0 1.554-.464 2.769-1.393 3.644-.93.876-2.251 1.376-3.966 1.5v2.546" style="-inkscape-font-specification:Input Semi-Condensed" font-stretch="semi-condensed" font-family="Input" font-size="29.475" font-weight="400" letter-spacing="0" word-spacing="0"/></g></svg>