<svg width="211" height="61" viewBox="0 0 211 61" xmlns="http://www.w3.org/2000/svg"><g fill="none" fill-rule="evenodd"><path d="M36.502 56.285a1.973 1.973 0 0 0-.789-3.779 1.972 1.972 0 0 0-1.964 2.137H23.187a1.972 1.972 0 1 0-2.752 1.642 1.97 1.97 0 0 0 .789 3.778 1.972 1.972 0 0 0 1.963-2.137h10.562c-.004.055-.008.11-.008.165a1.972 1.972 0 1 0 2.761-1.806" fill="#FFF"/><path d="M19.735 13.517C15.941 1.441 2.509 2.147 2.509 2.147c-3.36 13.088 2.686 22.999 7.681 25.73l9.545-14.36m17.466 0c3.794-12.076 17.226-11.37 17.226-11.37 3.36 13.088-2.686 22.999-7.681 25.73l-9.545-14.36" fill="#38BCAC"/><path d="M44.154 44.238c2.438-1.147 3.081-4.631 3.081-7.878v-6.868c0-16.287-13.431-17.039-18.767-17.039s-18.767.752-18.767 17.039v6.868c0 3.247.643 6.731 3.081 7.878h31.372" fill="#72CEAA"/><path d="M19.465 41.716c0-4.973 18.006-4.973 18.006 0a9.003 9.003 0 0 1-18.006 0" fill="#FFF"/><path d="M28.512 32.712v3.999c0 14.446 15.791 11.126 15.791 11.126 0-12.297-5.414-18.186-15.835-18.186-10.42 0-15.834 5.889-15.834 18.186 0 0 15.834 3.32 15.834-11.126v-3.999" fill="#38BCAC"/><path fill="#FFF" d="M25.543 12.454h5.851v17.197h-5.851z"/><path d="M15.934 14.957l3.801-1.44C17.974 7.911 15.356 5.272 9.701 3.304 5.74 1.927 2.89 2.128 2.509 2.147l.183 4.103c.022-.002 2.642-.114 5.565.903 3.892 1.353 6.475 3.979 7.677 7.804" fill="#72CEAA"/><path d="M9.629 28.904C4.095 25.879-2.124 15.487 1.375 1.856l.214-.832.859-.045c.146-.009 3.633-.173 7.636 1.22 5.377 1.87 9.101 5.663 10.767 10.968l-2.232.701C15.674 4.496 6.322 3.424 3.43 3.32.757 15.173 6.135 24.327 10.752 26.851l-1.123 2.053m6.727 20.437c-2.197 0-3.816-.328-3.962-.359l-.931-.195v-.95c0-6.373 1.448-11.244 4.303-14.479 2.857-3.236 7.13-4.877 12.702-4.877s9.846 1.641 12.703 4.877c2.855 3.235 4.302 8.106 4.302 14.479v.95l-.929.195c-.33.07-8.138 1.652-13.173-2.434a10.078 10.078 0 0 1-2.882-3.782 10.089 10.089 0 0 1-2.878 3.772c-2.811 2.283-6.49 2.803-9.255 2.803zm-2.54-2.505c2.067.256 7.067.533 10.327-2.12 2.093-1.704 3.155-4.397 3.155-8.005v-3.999h2.384v3.999c0 3.614 1.062 6.31 3.156 8.014 3.248 2.642 8.222 2.367 10.282 2.111-.275-10.773-5.076-16.015-14.652-16.015-9.575 0-14.376 5.242-14.652 16.015z" fill="#11344F"/><path d="M41.002 14.957l-3.801-1.44c1.762-5.606 4.379-8.245 10.034-10.213 3.961-1.377 6.811-1.176 7.192-1.157l-.182 4.103c-.023-.002-2.642-.114-5.566.903-3.892 1.353-6.475 3.979-7.677 7.804" fill="#72CEAA"/><path d="M47.307 28.904l-1.122-2.053c4.617-2.525 9.997-11.682 7.32-23.538-2.908.077-12.211 1.08-15.187 10.555l-2.233-.701c1.666-5.305 5.39-9.098 10.767-10.968C50.855.806 54.342.97 54.488.979l.859.045.214.832c3.499 13.631-2.72 24.023-8.254 27.048" fill="#11344F"/><path d="M12.284 45.297c-2.455-1.155-3.753-4.246-3.753-8.937v-6.868c0-8.306 3.459-18.208 19.937-18.208s19.937 9.902 19.937 18.208v6.868c0 4.691-1.297 7.782-3.753 8.937l-.996-2.118c2.096-.986 2.409-4.695 2.409-6.819v-6.868c0-6.541-2.281-11.117-6.778-13.603-4.101-2.265-9.157-2.265-10.819-2.265-1.662 0-6.718 0-10.819 2.265-4.497 2.486-6.778 7.062-6.778 13.603v6.868c0 2.124.313 5.833 2.409 6.819l-.996 2.118m16.184 6.592a11.334 11.334 0 0 1-8.277-3.61l1.715-1.593a8.983 8.983 0 0 0 6.562 2.862 8.866 8.866 0 0 0 6.55-2.848l1.712 1.596a11.338 11.338 0 0 1-8.262 3.593" fill="#11344F"/><path d="M31.891 27.754h-6.846a2.155 2.155 0 1 0 0 4.31h1.268a2.155 2.155 0 0 0 4.31 0h1.268a2.155 2.155 0 0 0 0-4.31m2.304-1.377a2.687 2.687 0 1 1 5.374 0 2.687 2.687 0 0 1-5.374 0m-16.826 0a2.687 2.687 0 1 1 5.374 0 2.687 2.687 0 0 1-5.374 0" fill="#11344F"/><path d="M32.901 35.009a.57.57 0 1 1 1.14 0 .57.57 0 0 1-1.14 0m4.212 1.58a.57.57 0 1 1 1.141 0 .57.57 0 0 1-1.141 0m-1.053 3.686a.57.57 0 1 1 1.14 0 .57.57 0 0 1-1.14 0m-1.58-2.633a.57.57 0 1 1 1.141.001.57.57 0 0 1-1.141-.001m-2.633 1.053a.57.57 0 1 1 1.141.001.57.57 0 0 1-1.141-.001m-7.811-3.686a.57.57 0 1 0-1.14 0 .57.57 0 0 0 1.14 0m-4.213 1.58a.57.57 0 1 0-1.141 0 .57.57 0 0 0 1.141 0m1.053 3.686a.57.57 0 1 0-1.14 0 .57.57 0 0 0 1.14 0m1.58-2.633a.57.57 0 1 0-1.14 0 .57.57 0 0 0 1.14 0m2.633 1.053a.57.57 0 1 0-1.14 0 .57.57 0 0 0 1.14 0" fill="#72CEAA"/><path fill="#FFF" d="M67.578 41.012h-.275l-.251-.025-.25-.025-.25-.025-.225-.05-.226-.05-.225-.05-.225-.075-.2-.1-.251-.101-.225-.1-.2-.125-.201-.125-.2-.15-.2-.15-.175-.176-.15-.175-.176-.175-.15-.175-.15-.2-.125-.226-.125-.2-.101-.225-.1-.226-.075-.25-.15-.45-.1-.451-.025-.25-.025-.251-.05-.5V27.17h2.353v8.135l.025.275.025.275.05.276.05.25.075.226.075.225.1.225.125.225.101.176.15.2.3.35.201.176.2.125.2.125.225.125.226.1.25.075.275.05.275.05.276.025h.576l.25-.025.25-.05.251-.05.225-.075.25-.1.2-.1.226-.1.2-.125.2-.151.175-.15.176-.175.3-.35.15-.201.125-.225.1-.225.126-.251.075-.2.1-.451.05-.225.025-.25.025-.25v-7.96h2.328v13.542h-2.328v-2.278l-.15.2-.125.2-.175.201-.151.2-.175.175-.175.175-.2.176-.201.175-.2.15-.2.15-.2.125-.201.125-.2.101-.2.075-.226.1-.225.05-.225.075-.25.05-.251.025-.25.025-.275.025h-.276M78.217 27.17h2.353v2.278l.125-.201.15-.2.15-.2.175-.201.175-.2.176-.175.175-.175.2-.15.2-.176.226-.15.225-.125.225-.125.251-.125.25-.1.275-.076.225-.049.251-.051.25-.05.251-.025.275-.025h.55l.251.025.25.025.25.025.226.05.25.051.225.05.201.075.225.075.225.125.225.1.226.125.2.125.2.151.175.15.176.175.175.15.15.201.15.175.15.2.126.225.125.2.1.226.1.225.1.25.05.226.075.225.05.225.05.225.025.251.05.25v.25l.026.251v8.761h-2.353v-8.135l-.051-.551-.05-.276-.05-.25-.15-.451-.1-.225-.125-.225-.1-.175-.15-.2-.126-.176-.175-.175-.2-.175-.2-.125-.201-.125-.225-.126-.225-.1-.251-.075-.25-.05-.275-.05-.276-.025h-.575l-.251.025-.5.1-.225.075-.226.075-.225.101-.225.1-.2.125-.201.15-.175.15-.175.175-.151.176-.15.2-.15.2-.125.225-.3.676-.05.226-.1.45-.026.25-.024.251v7.96h-2.353V27.17m21.176 13.842h-.25l-.226-.025-.25-.025-.225-.025-.226-.05-.25-.05-.225-.05-.25-.075-.226-.075-.225-.1-.225-.101-.226-.1-.225-.125-.2-.125-.2-.125-.226-.15-.175-.151-.2-.15-.2-.175-.176-.175-.15-.176-.175-.175-.15-.175-.125-.175-.15-.2-.126-.2-.125-.201-.125-.225-.125-.225-.1-.226-.1-.225-.1-.225-.151-.451-.05-.225-.075-.25-.025-.251-.1-.5-.025-.251v-.275l-.025-.275v-.601l.025-.276v-.275l.025-.25.05-.251.025-.25.05-.25.075-.25.05-.226.075-.25.076-.225.1-.226.1-.225.1-.225.1-.226.125-.225.25-.4.151-.201.125-.175.15-.175.175-.175.15-.175.176-.175.2-.176.2-.15.175-.15.226-.15.2-.126.2-.125.226-.125.225-.1.225-.1.225-.1.251-.075.225-.075.225-.05.25-.051.226-.05.25-.025.25-.025.226-.025h.5l.251.025.25.025.225.025.226.05.225.051.225.05.25.075.226.1.25.075.225.125.225.1.201.125.2.126.2.15.201.125.175.15.175.15.175.175.301.351.15.15.15.2.15.176.125.175v-7.91h2.328v18.999h-2.328v-2.578l-.125.2-.15.175-.15.175-.15.2-.151.175-.175.176-.175.175-.175.15-.176.175-.2.151-.175.15-.2.125-.226.125-.2.125-.225.1-.25.101-.226.1-.25.075-.225.05-.225.05-.226.05-.225.025-.25.025-.251.025h-.25zm.476-2.078h.25l.25-.025.251-.05.25-.05.25-.05.25-.1.226-.1.225-.1.225-.125.226-.126.2-.149.2-.151.2-.175.201-.175.15-.175.15-.176.125-.175.15-.2.101-.2.125-.201.1-.225.125-.225.15-.451.075-.25.1-.501.05-.551v-.6l-.025-.276-.025-.25-.1-.501-.075-.25-.075-.225-.075-.25-.125-.2-.1-.226-.125-.2-.101-.201-.15-.2-.125-.175-.3-.35-.201-.176-.2-.175-.2-.15-.2-.15-.226-.125-.225-.126-.225-.125-.226-.075-.25-.1-.25-.05-.25-.05-.251-.05-.25-.025h-.501l-.275.025-.25.025-.251.05-.25.075-.225.075-.225.075-.251.126-.2.1-.225.125-.201.15-.2.15-.175.15-.175.175-.176.201-.175.2-.15.2-.125.226-.251.5-.1.251-.075.225-.15.5-.025.251-.05.275-.025.275-.025.276v.6l.025.276.025.275.05.25.05.251.05.25.075.225.1.226.101.275.125.25.25.451.15.225.176.201.175.175.175.2.175.175.2.15.201.151.225.125.2.125.25.1.226.1.225.075.25.05.251.05.25.05.25.025h.251zm16.67 2.078h-.25l-.25-.025-.251-.025-.25-.025-.25-.025-.226-.05-.25-.05-.451-.15-.225-.075-.225-.101-.25-.1-.251-.1-.225-.125-.225-.125-.226-.15-.2-.151-.225-.15-.2-.175-.176-.15-.2-.201-.175-.15-.15-.175-.15-.2-.15-.175-.126-.201-.15-.2-.125-.2-.125-.225-.1-.226-.101-.225-.1-.225-.1-.225-.075-.226-.075-.225-.05-.225-.075-.226-.05-.25-.025-.225-.05-.25-.025-.251v-.25l-.025-.276v-.55l.025-.276v-.25l.05-.25.025-.25.05-.251.1-.5.075-.251.075-.225.1-.25.075-.226.101-.225.1-.225.125-.2.1-.226.125-.2.15-.2.125-.2.151-.176.15-.175.15-.2.175-.176.201-.175.175-.175.2-.175.2-.15.226-.15.2-.126.225-.15.225-.1.251-.125.2-.1.451-.15.225-.075.25-.05.225-.051.251-.05.25-.025.25-.025.251-.025h.525l.276.025.25.025.275.025.251.05.25.051.225.05.25.075.226.075.225.1.225.1.225.125.251.125.2.126.225.15.201.15.2.15.175.175.2.175.151.176.175.2.3.401.15.225.125.2.126.225.125.251.1.225.125.25.075.251.1.25.075.25.076.25.05.251.05.25.05.251.025.25.05.25.025.25v.276l.025.25v.626l-.05.375h-10.488l.025.251.05.25.05.225.05.225.075.226.075.225.075.2.1.201.125.225.126.2.125.2.15.176.15.2.15.175.175.15.201.175.225.151.226.15.225.125.25.125.25.1.2.075.226.05.225.05.251.05.225.025.225.026h.526l.25-.026.25-.025.251-.024.225-.051.225-.05.226-.075.2-.05.225-.1.2-.1.2-.1.201-.125.225-.125.2-.151.201-.15.175-.15.2-.175.2-.175.175-.176.176.15.175.176.175.15.2.15.176.175.175.15.175.176.175.15-.175.2-.175.175-.175.176-.176.175-.2.15-.175.15-.2.15-.2.151-.201.15-.225.125-.2.125-.226.1-.2.125-.225.075-.225.101-.226.075-.225.075-.25.05-.251.05-.25.05-.275.025-.275.05h-.276l-.275.025h-.301zm3.73-7.885l-.025-.25-.025-.25-.05-.226-.05-.25-.075-.225-.05-.226-.075-.225-.126-.25-.1-.251-.125-.225-.15-.225-.15-.2-.151-.226-.2-.175-.175-.175-.2-.175-.2-.125-.226-.151-.225-.125-.225-.075-.201-.075-.225-.075-.25-.05-.251-.025-.25-.025h-.526l-.275.025-.275.05-.25.075-.251.075-.225.1-.25.125-.226.125-.2.126-.2.175-.201.15-.175.175-.175.2-.175.201-.15.225-.151.225-.125.251-.125.25-.1.25-.075.226-.075.25-.075.225-.05.25-.05.276-.025.25h8.185zm5.206-5.957h2.353v3.379l.101-.225.125-.226.1-.225.125-.225.15-.2.125-.201.151-.2.149-.2.151-.175.175-.176.175-.15.175-.175.176-.15.2-.15.2-.126.2-.125.201-.1.2-.125.225-.1.225-.075.451-.151.25-.049.251-.026.25-.05h.776v2.478h-.426l-.275.026-.25.025-.251.05-.25.05-.25.05-.25.075-.226.1-.25.1-.225.1-.201.125-.2.151-.2.15-.2.15-.176.175-.175.175-.15.175-.15.176-.15.2-.125.201-.126.2-.1.2-.1.225-.1.25-.1.226-.075.225-.05.2-.075.226-.05.225-.026.225-.049.225-.026.251-.025.25v.25l-.025.251v5.607h-2.353V27.17m15.195 13.842h-.251l-.225-.025-.25-.025-.225-.025-.226-.05-.25-.05-.225-.05-.251-.075-.225-.075-.225-.1-.226-.101-.225-.1-.225-.125-.201-.125-.199-.125-.226-.15-.175-.151-.2-.15-.201-.175-.175-.175-.15-.176-.175-.175-.15-.175-.125-.175-.151-.2-.25-.401-.25-.45-.201-.451-.1-.225-.075-.226-.075-.225-.05-.225-.075-.25-.025-.251-.05-.25-.05-.25-.025-.251v-.275l-.025-.275v-.601l.025-.276v-.275l.025-.25.05-.251.025-.25.05-.25.075-.25.05-.226.075-.25.075-.225.1-.226.201-.45.1-.226.125-.225.25-.4.15-.201.125-.175.151-.175.175-.175.15-.175.175-.175.201-.176.2-.15.175-.15.225-.15.201-.126.2-.125.225-.125.225-.1.226-.1.225-.1.25-.075.226-.075.225-.05.25-.051.225-.05.251-.025.25-.025.225-.025h.501l.25.025.251.025.225.025.225.05.225.051.226.05.25.075.225.1.251.075.225.125.225.1.2.125.201.126.2.15.2.125.176.15.175.15.175.175.15.175.15.176.15.15.151.2.15.176.125.175v-7.91h2.328v18.999h-2.328v-2.578l-.125.2-.15.175-.151.175-.15.2-.15.175-.175.176-.175.175-.176.15-.175.175-.2.151-.175.15-.201.125-.225.125-.2.125-.225.1-.251.101-.225.1-.25.075-.226.05-.225.05-.225.05-.225.025-.251.025-.25.025h-.25zm.475-2.078h.251l.25-.025.25-.05.501-.1.25-.1.225-.1.226-.1.225-.125.225-.126.201-.149.2-.151.2-.175.2-.175.151-.175.15-.176.125-.175.15-.2.1-.2.125-.201.101-.225.125-.225.075-.226.075-.225.075-.25.05-.251.05-.25.025-.275.025-.276v-.6l-.025-.276-.025-.25-.05-.25-.05-.251-.075-.25-.075-.225-.075-.25-.125-.2-.101-.226-.125-.2-.1-.201-.15-.2-.125-.175-.15-.175-.151-.175-.4-.351-.2-.15-.201-.15-.225-.125-.225-.126-.226-.125-.225-.075-.25-.1-.251-.05-.25-.05-.25-.05-.25-.025h-.501l-.275.025-.25.025-.251.05-.25.075-.226.075-.225.075-.25.126-.2.1-.226.125-.2.15-.2.15-.176.15-.175.175-.175.201-.175.2-.15.2-.125.226-.125.25-.126.25-.1.251-.075.225-.15.5-.025.251-.05.275-.05.551v.6l.05.551.15.751.075.225.1.226.1.275.125.25.251.451.15.225.175.201.175.175.176.2.175.175.2.15.2.151.226.125.2.125.25.1.225.1.226.075.25.05.25.05.251.05.25.025h.25zm16.946 2.078h-.25l-.25-.025h-.251l-.25-.025-.25-.05-.226-.05-.25-.025-.225-.075-.225-.05-.226-.075-.225-.076-.2-.1-.251-.1-.225-.125-.225-.1-.2-.125-.226-.125-.2-.151-.2-.15-.175-.15-.201-.15-.175-.175-.175-.176-.175-.175-.301-.35-.15-.201-.15-.2-.125-.2-.125-.225-.126-.2-.125-.226-.1-.225-.1-.225-.1-.226-.075-.25-.075-.225-.05-.251-.075-.25-.05-.225-.026-.251-.024-.25-.026-.25-.025-.275v-.551l.025-.275.026-.251.024-.25.026-.251.05-.25.075-.225.05-.25.075-.251.1-.225.1-.25.1-.225.1-.226.1-.225.126-.2.125-.226.15-.2.15-.2.15-.2.15-.176.151-.2.175-.175.175-.175.175-.176.201-.15.175-.15.2-.15.225-.15.201-.125.225-.126.225-.125.225-.1.226-.125.225-.075.225-.075.226-.075.225-.076.225-.05.251-.049.225-.051.25-.05.251-.025h.25l.25-.025h.501l.25.025h.25l.251.025.225.05.25.051.226.049.225.05.225.076.225.075.451.15.225.125.226.1.225.125.225.126.2.125.201.15.2.125.2.15.175.175.201.151.175.175.15.175.175.175.15.201.151.175.125.2.15.2.125.226.125.2.1.225.1.225.126.226.075.225.1.25.075.226.05.25.075.25.05.251.025.25.025.25.025.25.025.276v.551l-.025.275-.025.25-.025.25-.025.251-.05.25-.075.225-.05.251-.075.25-.1.225-.075.226-.126.25-.1.225-.1.225-.125.201-.125.225-.15.2-.15.201-.126.2-.175.175-.15.175-.175.175-.351.351-.4.3-.201.15-.2.151-.2.125-.225.125-.226.125-.225.1-.225.1-.225.101-.226.075-.225.075-.225.075-.25.05-.226.05-.25.05-.226.05-.25.025h-.25l-.25.025h-.251zm.038-2.078h.251l.276-.025.226-.025.251-.05.251-.05.226-.075.226-.075.225-.1.227-.1.225-.125.226-.151.226-.15.201-.175.175-.175.201-.175.151-.201.176-.2.125-.225.15-.225.126-.226.101-.25.125-.25.075-.201.051-.25.075-.225.05-.225.025-.251.025-.25.025-.25v-.551l-.025-.25-.025-.251-.05-.25-.05-.225-.05-.251-.076-.225-.075-.25-.1-.2-.101-.226-.126-.225-.125-.2-.125-.176-.126-.2-.15-.175-.151-.175-.176-.176-.201-.2-.2-.15-.226-.15-.226-.15-.226-.125-.251-.126-.226-.1-.225-.075-.226-.075-.226-.05-.251-.05-.226-.025-.251-.025h-.502l-.276.025-.226.025-.251.05-.251.05-.226.075-.226.075-.201.1-.251.126-.225.125-.227.15-.225.15-.201.15-.201.2-.175.176-.176.2-.151.2-.15.225-.151.226-.125.225-.101.25-.1.251-.101.225-.05.225-.075.251-.05.225-.025.25-.026.225-.025.251v.551l.025.25.026.25.05.25.05.226.05.25.076.225.1.226.075.225.101.2.125.225.125.201.126.175.125.2.151.175.352.351.2.2.201.15.226.151.225.15.227.125.251.125.201.1.225.075.226.075.251.05.226.05.251.025.251.025h.251zm16.058 5.983h-.526l-.251-.025-.25-.025-.25-.025-.251-.025-.25-.025-.25-.05-.25-.05-.251-.05-.225-.051-.25-.05-.226-.075-.25-.075-.45-.15-.226-.075-.225-.1-.225-.1-.226-.1-.225-.1-.225-.126-.2-.125-.226-.1-.225-.15-.2-.125.125-.225.375-.675.125-.25.251-.45.125-.225.2.15.226.125.2.125.225.125.225.125.226.1.2.1.45.2.226.075.25.1.225.05.226.074.25.051.225.05.25.05.251.049.225.026.25.024h.251l.275.026h.551l.275-.026.276-.024.25-.026.25-.05.25-.05.251-.075.225-.075.225-.1.201-.075.225-.125.175-.1.2-.151.176-.125.175-.15.15-.15.15-.176.15-.175.125-.2.126-.2.1-.2.1-.226.075-.225.075-.25.1-.501.05-.275.025-.276.025-.3v-1.727l-.15.202-.15.177-.15.202-.176.176-.175.152-.15.177-.2.177-.175.152-.175.151-.201.152-.2.126-.401.252-.2.102-.4.201-.226.076-.225.076-.225.051-.25.05-.251.05-.25.026-.25.025-.276.025h-.526l-.225-.025-.25-.025-.225-.025-.225-.025-.251-.05-.225-.075-.226-.05-.225-.076-.225-.1-.225-.075-.226-.101-.225-.1-.2-.125-.2-.126-.201-.125-.2-.15-.2-.126-.175-.176-.176-.15-.175-.175-.175-.176-.15-.176-.175-.2-.126-.201-.15-.201-.125-.2-.25-.452-.1-.225-.1-.226-.076-.201-.075-.251-.05-.225-.075-.226-.05-.251-.05-.502-.025-.25-.025-.251v-.602l.025-.251.025-.251.025-.25.025-.251.05-.251.075-.226.05-.251.075-.225.1-.226.101-.226.1-.226.25-.451.125-.201.125-.2.15-.201.151-.201.175-.175.15-.176.175-.175.176-.151.175-.175.2-.126.2-.15.201-.126.2-.125.2-.125.225-.101.226-.1.225-.1.225-.075.225-.076.226-.05.225-.075.251-.05.225-.026.225-.025.25-.025.225-.025h.526l.276.025.25.025.275.025.25.05.226.051.25.05.225.075.226.075.2.075.225.1.2.1.201.125.2.15.225.151.201.15.2.15.2.175.2.15.176.175.175.176.15.2.175.175.15.201V27.17h2.328v11.339l-.025.3v.301l-.05.275-.025.275-.05.276-.05.25-.05.25-.075.251-.075.25-.076.225-.099.226-.076.225-.125.2-.1.226-.125.2-.125.175-.15.2-.125.175-.176.151-.15.175-.35.3-.351.3-.2.126-.2.125-.226.125-.225.1-.225.1-.226.1-.225.075-.25.075-.225.076-.226.05-.25.05-.25.05-.25.05-.251.025-.25.025-.275.025-.276.025h-.55zm.074-7.309h.251l.25-.025.251-.025.25-.05.25-.05.25-.075.251-.1.25-.075.225-.099.226-.125.2-.125.2-.125.2-.149.201-.175.175-.15.15-.175.175-.199.125-.175.151-.2.125-.224.125-.225.1-.225.15-.499.1-.499.025-.25v-.599l-.025-.274-.1-.499-.15-.5-.1-.224-.25-.449-.151-.2-.125-.175-.175-.199-.15-.175-.175-.175-.201-.15-.2-.149-.2-.125-.2-.125-.226-.125-.225-.1-.25-.1-.251-.075-.25-.074-.25-.05-.25-.05-.251-.025-.25-.025h-.501l-.25.025-.25.025-.251.05-.25.05-.225.074-.225.075-.251.1-.2.1-.225.1-.201.125-.2.125-.175.149-.175.15-.176.175-.15.174-.15.2-.125.175-.125.2-.126.224-.2.45-.075.249-.05.25-.1.499-.025.274v.6l.025.274.1.499.05.25.075.224.2.45.126.224.125.2.125.2.15.174.176.175.175.175.175.15.175.149.2.15.201.125.2.1.225.124.226.075.225.1.25.075.225.05.251.05.25.025.25.025h.25zm10.488.1h2.728v3.004h-2.728zm6.283-15.695h2.628v2.453h-2.628v-2.453zm.15 5.157h2.328v13.542h-2.328V27.17zm12.566 13.842h-.251l-.25-.025h-.25l-.251-.025-.25-.05-.225-.05-.251-.025-.225-.075-.225-.05-.225-.075-.226-.076-.2-.1-.25-.1-.225-.125-.226-.1-.2-.125-.225-.125-.401-.301-.175-.15-.2-.15-.176-.175-.175-.176-.175-.175-.15-.175-.15-.175-.151-.201-.15-.2-.125-.2-.125-.225-.125-.2-.126-.226-.1-.225-.1-.225-.1-.226-.075-.25-.075-.225-.05-.251-.075-.25-.05-.225-.025-.251-.025-.25-.025-.25-.025-.275v-.551l.025-.275.025-.251.025-.25.025-.251.05-.25.075-.225.05-.25.075-.251.1-.225.1-.25.101-.225.1-.226.1-.225.125-.2.125-.226.15-.2.15-.2.151-.2.15-.176.15-.2.175-.175.176-.175.175-.176.2-.15.175-.15.2-.15.226-.15.2-.125.225-.126.226-.125.225-.1.225-.125.225-.075.226-.075.225-.075.225-.076.226-.05.25-.049.225-.051.25-.05.251-.025h.25l.25-.025h.501l.25.025h.251l.25.025.225.05.25.051.226.049.225.05.225.076.226.075.225.075.225.075.225.125.226.1.225.125.225.126.201.125.2.15.2.125.2.15.176.175.2.151.175.175.15.175.175.175.151.201.15.175.125.2.15.2.125.226.125.2.101.225.1.225.125.226.075.225.1.25.075.226.05.25.076.25.049.251.026.25.024.25.026.25.024.276v.551l-.024.275-.026.25-.024.25-.026.251-.049.25-.076.225-.05.251-.075.25-.1.225-.075.226-.125.25-.1.225-.101.225-.125.201-.125.225-.15.2-.15.201-.125.2-.175.175-.151.175-.175.175-.175.176-.175.175-.201.15-.2.15-.2.15-.2.151-.201.125-.225.125-.225.125-.225.1-.226.1-.225.101-.225.075-.226.075-.225.075-.25.05-.226.05-.25.05-.225.05-.251.025h-.25l-.25.025h-.25zm.037-2.078h.251l.276-.025.226-.025.251-.05.251-.05.226-.075.226-.075.226-.1.226-.1.225-.125.227-.151.225-.15.201-.175.176-.175.201-.175.15-.201.176-.2.125-.225.151-.225.125-.226.101-.25.125-.25.075-.201.051-.25.075-.225.05-.225.026-.251.025-.25.025-.25v-.551l-.025-.25-.025-.251-.051-.25-.05-.225-.05-.251-.076-.225-.075-.25-.1-.2-.101-.226-.125-.225-.125-.2-.126-.176-.125-.2-.151-.175-.151-.175-.175-.176-.201-.2-.201-.15-.226-.15-.226-.15-.226-.125-.251-.126-.226-.1-.225-.075-.226-.075-.226-.05-.251-.05-.226-.025-.251-.025h-.502l-.276.025-.226.025-.251.05-.251.05-.226.075-.226.075-.201.1-.25.126-.226.125-.226.15-.226.15-.201.15-.201.2-.175.176-.176.2-.15.2-.151.225-.151.226-.125.225-.201.501-.1.225-.051.225-.075.251-.05.225-.025.25-.025.225-.025.251v.551l.05.5.05.25.05.226.05.25.076.225.1.226.076.225.1.2.125.225.126.201.125.175.126.2.15.175.176.176.176.175.201.2.2.15.226.151.226.15.226.125.251.125.201.1.225.075.227.075.251.05.225.05.251.025.251.025h.251z"/></g></svg>