<svg xmlns="http://www.w3.org/2000/svg" height="140" width="750" viewBox="0 0 1525 68.068965" class="behance-svg"><path d="M130.88-106.373c12.988 0 24.977.999 35.967 3.996 10.99 1.998 19.982 5.994 27.975 10.99 7.992 4.995 13.987 11.989 17.983 20.98 3.997 8.992 5.995 19.982 5.995 31.971 0 13.988-2.998 25.977-9.991 34.968-5.995 8.992-15.985 16.985-27.975 22.98 16.985 4.995 29.973 13.987 37.966 25.976 7.992 11.989 12.988 26.975 12.988 43.96 0 13.987-2.997 25.976-7.993 35.966-4.995 9.991-12.988 18.983-21.98 24.978-8.991 5.994-19.981 10.99-31.97 13.987-11.99 2.997-23.979 4.995-35.968 4.995H0v-275.747h130.88zM122.888 5.524c10.99 0 19.981-2.997 26.975-7.992 6.993-4.996 9.99-13.988 9.99-24.978 0-5.994-.998-11.989-2.997-15.985-1.998-3.996-4.995-6.994-8.991-9.99-3.997-1.999-7.993-3.997-12.988-4.996-4.996-1-9.991-1-15.986-1H60.944V5.525h61.944zm2.997 117.892c5.994 0 11.989-.999 16.984-1.998 4.996-.999 9.991-2.997 13.987-5.994 3.997-2.998 6.994-5.995 9.991-10.99 1.998-4.996 3.997-10.99 3.997-17.984 0-13.987-3.997-23.978-11.99-30.972-7.992-5.994-18.982-8.991-31.97-8.991h-65.94v76.93h64.94zm192.823-.999c7.993 7.993 19.982 11.99 35.967 11.99 10.99 0 20.981-2.998 28.974-7.993 7.993-5.995 12.988-11.99 14.986-17.984h48.955c-7.992 23.978-19.981 40.963-35.967 51.952-15.985 9.991-34.968 15.986-57.947 15.986-15.985 0-29.972-2.997-42.96-7.993-12.989-4.995-22.98-11.989-31.971-21.98-8.992-8.992-15.986-19.981-19.982-32.97-4.995-12.988-6.993-26.975-6.993-42.96 0-14.987 1.998-28.974 6.993-41.962 4.996-12.988 11.99-23.978 20.98-33.969 8.993-8.992 19.983-16.984 31.972-21.98 12.988-4.995 25.976-7.992 41.961-7.992 16.985 0 31.971 2.997 44.96 9.99 12.987 6.994 22.978 14.987 30.97 26.976 7.993 10.99 13.988 23.978 17.984 37.965 1.998 13.987 2.998 27.974 1.998 43.96H304.721c0 15.985 5.995 30.972 13.987 38.964zm62.943-104.904c-6.994-6.993-17.984-10.99-30.972-10.99-8.992 0-15.985 1.998-21.98 4.996-5.994 2.997-9.99 6.993-13.987 10.99-3.996 3.996-5.995 8.991-6.994 13.987-.999 4.995-1.998 8.992-1.998 12.988h89.918c-1.998-14.986-6.994-24.977-13.987-31.97zm145.866-123.886V-2.468h1c6.993-11.99 15.985-19.982 26.975-24.978 10.99-4.995 20.98-7.992 31.97-7.992 14.987 0 26.976 1.998 35.967 5.994 8.992 3.997 16.985 9.991 21.98 16.985 4.996 6.993 8.992 15.985 10.99 25.976 1.998 9.99 2.997 20.98 2.997 33.969v122.887h-54.95V57.477c0-16.985-2.997-28.974-7.992-36.967-4.995-7.992-13.987-11.989-26.975-11.989-14.987 0-25.976 4.996-31.971 12.989-6.994 8.991-9.99 23.978-9.99 43.96v104.903h-54.95v-276.746h54.95zM699.36-.47c5.994-8.992 12.988-14.987 21.98-20.981 8.992-4.996 18.982-8.992 29.972-10.99 10.99-1.998 21.98-2.997 32.97-2.997 9.991 0 19.982.999 30.972 1.998 9.99.999 19.981 3.996 27.974 7.993 8.992 3.996 14.986 9.99 20.981 16.984 4.995 6.994 7.993 16.984 7.993 28.973v104.904c0 8.992.999 17.984 1.998 25.977.999 7.992 3.996 14.986 6.993 18.982h-55.948c-1.999-1.998-2.998-5.994-3.997-8.991-.999-2.998-.999-6.994-.999-9.991-8.992 8.991-18.982 14.986-30.971 18.982-11.99 3.997-23.978 4.996-35.968 4.996-9.99 0-17.983-1-26.975-3.997-7.993-1.998-14.986-5.994-21.98-10.99-5.994-4.995-10.99-10.99-14.986-18.982-2.997-7.993-4.995-15.986-4.995-26.975 0-10.99 1.998-20.981 5.994-27.975 3.996-6.993 8.992-12.988 14.986-17.983 5.995-3.997 13.988-7.993 21.98-9.991 7.993-1.998 15.986-3.997 24.977-4.996l23.978-2.997c7.993-.999 14.987-1.998 20.981-2.997 5.995-1.998 10.99-3.997 14.987-6.994 3.996-2.997 4.995-6.993 4.995-12.988 0-5.994-1-10.99-2.997-13.987-1.998-2.997-4.996-5.995-7.993-7.993-2.997-1.998-6.994-2.997-10.99-3.996-3.996-1-8.992-1-13.987-1-10.99 0-18.983 1.999-24.977 6.994-5.995 4.996-9.991 12.988-10.99 22.98h-54.95c0-11.99 3.996-22.98 8.992-30.972zm108.9 77.928c-2.997 1-6.993 1.999-10.99 2.998-3.996.999-7.992.999-12.988 1.998-3.996.999-8.992.999-12.988 1.998l-11.989 2.997c-3.996 1-7.993 2.997-9.99 4.996-2.998 1.998-4.996 4.995-6.994 7.992-2.998 3.997-2.998 7.993-2.998 12.988 0 4.996 1 8.992 2.998 11.99 1.998 2.997 3.996 5.994 6.993 7.992 2.997 1.998 6.994 2.997 10.99 3.996 3.996 1 7.993 1 12.988 1 10.99 0 18.983-1.999 24.977-4.996 5.995-3.996 9.991-7.993 12.988-12.988 2.998-4.995 4.996-9.99 4.996-14.986.999-4.996.999-8.992.999-11.99v-20.98c-2.997 1.998-5.995 3.996-8.992 4.995zM955.126-30.443v27.975h.999c6.993-11.99 15.985-19.982 26.975-24.978 10.99-4.995 22.98-7.992 33.969-7.992 14.986 0 26.975 1.998 35.967 5.994 9.991 3.997 16.985 9.991 21.98 16.985 4.995 6.993 8.992 15.985 11.989 25.976 1.998 9.99 2.997 20.98 2.997 33.969v122.887h-54.95V57.477c0-16.985-2.997-28.974-7.992-36.967-4.996-7.992-13.987-12.988-27.974-12.988-14.987 0-25.977 5.995-32.97 14.987-6.994 8.991-9.991 23.978-9.991 43.96v104.903h-54.95V-30.443h53.95zM1212.89 5.524c-8.992 0-15.986 1.998-21.98 5.995-5.995 3.996-10.99 8.991-14.986 15.985-3.997 5.995-5.995 12.988-7.993 20.98-1.998 7.994-1.998 14.987-1.998 22.98 0 6.993.999 14.986 1.998 21.98 1.998 7.992 3.996 13.987 7.993 19.981 3.996 5.995 7.992 10.99 13.987 14.987 5.994 3.996 12.988 5.994 21.98 5.994 12.988 0 22.979-3.996 30.971-10.99 6.994-6.993 11.99-16.984 12.988-29.972h52.952c-3.996 26.975-13.987 46.957-30.972 60.944-16.984 13.987-38.964 20.98-65.94 20.98-14.986 0-28.973-2.997-40.962-7.992-12.988-4.995-22.979-11.989-31.97-20.98-8.992-8.993-15.986-19.982-20.981-31.971-4.996-12.989-6.994-25.977-6.994-40.963 0-15.985 1.998-29.973 6.994-42.96 4.995-12.989 10.99-24.978 19.981-34.969 8.992-9.99 19.982-16.984 31.971-22.979 12.988-4.995 26.975-7.992 42.96-7.992 11.99 0 22.98 1.998 33.97 4.995 10.99 2.997 20.98 7.993 28.973 13.987 8.992 5.995 15.986 13.988 20.981 23.978 4.995 8.992 7.993 20.981 8.992 33.97h-53.95c-1.999-23.979-14.987-35.968-38.965-35.968zM293.731-87.39H405.63v26.975h-111.9zm1097.995 209.807c7.993 7.993 20.98 11.99 35.967 11.99 10.99 0 20.981-2.998 28.974-7.993 7.992-5.995 12.988-11.99 14.986-17.984h47.956c-7.993 23.978-19.982 40.963-35.967 51.952-15.985 9.991-34.968 15.986-57.947 15.986-15.985 0-29.973-2.997-42.96-7.993-12.989-4.995-22.98-11.989-31.971-21.98-8.992-8.992-15.986-19.981-19.982-32.97-4.996-12.988-6.994-26.975-6.994-42.96 0-14.987 1.998-28.974 6.994-41.962 4.995-12.988 11.989-23.978 20.98-33.969 8.992-8.992 19.982-16.984 31.971-21.98 12.989-4.995 26.976-7.992 41.962-7.992 16.984 0 31.97 2.997 43.96 9.99 12.988 6.994 22.979 14.987 30.971 26.976 7.993 10.99 13.988 23.978 17.984 37.965 3.996 13.987 4.995 28.974 3.996 44.959H1377.74c0 14.986 5.994 29.973 13.987 37.965zm63.942-104.904c-6.994-6.993-17.984-10.99-30.972-10.99-8.992 0-15.985 1.998-21.98 4.996-5.994 2.997-10.99 6.993-13.987 10.99-2.997 3.996-5.995 8.991-6.994 13.987-.999 4.995-1.998 8.992-1.998 12.988h89.918c-2.997-14.986-7.993-24.977-13.987-31.97z" fill="#fff"/></svg>