<svg xmlns="http://www.w3.org/2000/svg" width="1250" height="271.25"><g fill="#6eb72e"><path d="M0 26.107v223.854c0 15.154 15.33 25.447 29.271 19.65l116.995-48.644c11.022-4.582 18.208-15.382 18.208-27.363V52.93l-26.963-1.567v128.221c0 9.49-5.925 17.96-14.812 21.178l-74.166 26.853V49.843c0-10.63 9.204-18.893 19.719-17.705L164.474 43V25.443L30.737.449C14.757-2.54 0 9.78 0 26.107m240.161 132.679c3.414 4.368 9.77 9.462 19.75 9.462 9.779 0 16.119-5.094 19.541-9.462 4.382-5.58 4.868-8.971 4.868-28.616 0-19.88-.486-23.277-4.867-28.858-3.423-4.376-9.763-9.455-19.542-9.455-9.98 0-16.336 5.08-19.75 9.455-4.381 5.58-4.869 8.978-4.869 28.858 0 19.645.488 23.035 4.87 28.616zm42.781 19.879c-6.58 8.494-18.582 14.313-31.27 14.313-16.1 0-26.722-7.988-32.347-15.028-7.071-9.216-9.085-13.831-9.085-47.78 0-34.187 2.272-38.781 9.344-48.015 5.625-7.035 15.943-15.039 32.045-15.039 12.688 0 24.732 4.858 31.313 14.55V69.065h26.328v119.54c0 37.114-25.398 54.092-53.718 54.092-15.84 0-31.953-8.263-42.935-20.63L231.89 206.8c6.078 6.073 13.945 11.148 23.462 11.148 16.565 0 27.591-9.451 27.591-26.66v-12.624m46.072-158.678h26.326v139.762c0 5.596 3.123 7.475 9.219 7.475h7.235v22.903h-9.674c-18.051 0-33.106-6.358-33.106-28.431V19.986m131.632 117.79H432.12c-14.647 0-21.483 6.625-21.483 15.612 0 8.236 5.975 15.918 22.824 15.918 20.735 0 27.188-1.792 27.188-20.94v-10.59zm0 42.534h.733c-5.121 9.816-13.655 12.52-30.471 12.52-27.563 0-43.664-16.616-43.664-37.959 0-19.654 13.655-36.727 40.25-36.727h33.153V106.16c0-11.641-6.958-15.767-24.767-15.767-12.922 0-18.713 2.425-23.102 9.464l-19.355-14.79c9.501-13.094 23.384-17.952 41.916-17.952 30.488 0 51.635 10.199 51.635 40.512v82.499h-26.328v-9.817m60.751-26.355c10.72 10.391 22.44 15.753 39.013 15.753 14.143 0 24.402-5.362 24.402-15.753 0-8.749-6.602-11.42-15.12-12.139l-21.944-1.952c-20.5-1.692-35.625-13.81-35.625-34.91 0-24.984 19.995-37.837 46.092-37.837 21.728 0 36.34 6.545 48.55 16.745l-15.371 17.94c-9.761-6.792-19.768-11.407-33.179-11.407-15.849 0-21.212 6.307-21.212 14.78 0 5.334 3.901 10.692 16.362 11.654l20.465 1.458c25.603 1.694 35.853 17.214 35.853 36.864 0 24.005-22.45 37.828-51.224 37.828-19.994 0-38.526-7.278-54.4-22.08l17.337-16.944m115.848 0c10.738 10.391 22.45 15.753 39.015 15.753 14.15 0 24.4-5.362 24.4-15.753 0-8.749-6.593-11.42-15.135-12.139l-21.927-1.952c-20.5-1.692-35.602-13.81-35.602-34.91 0-24.984 19.986-37.837 46.06-37.837 21.744 0 36.374 6.545 48.549 16.745l-15.361 17.94c-9.763-6.792-19.768-11.407-33.188-11.407-15.84 0-21.189 6.307-21.189 14.78 0 5.334 3.885 10.692 16.33 11.654l20.49 1.458c25.603 1.694 35.853 17.214 35.853 36.864 0 24.005-22.441 37.828-51.223 37.828-20.02 0-38.535-7.278-54.392-22.08l17.32-16.944m132.21-24.043c0 19.181 1.195 38.337 24.611 38.337 23.182 0 24.409-20.368 24.409-38.337 0-17.69-1.227-38.054-24.409-38.054-23.416 0-24.611 19.148-24.611 38.054zm49.895 48.754c-9.873 8.494-19.709 14.313-32.405 14.313-15.127 0-26.301-6.797-33.364-15.99-6.827-8.74-8.905-16.748-8.905-47.077 0-30.054 1.914-38.054 8.742-46.799 7.062-9.208 18.427-15.996 33.555-15.996 12.696 0 22.505 5.823 32.377 14.55v-61.68h23.035v170.14H819.35v-11.461m115.47-77.83c-3.675-5.104-11.461-8.977-19.995-8.977-8.535 0-16.354 3.873-20.02 8.977-4.616 6.546-6.08 11.386-6.08 29.076 0 17.969 1.464 22.814 6.08 29.352 3.666 5.082 11.485 8.985 20.02 8.985 8.534 0 16.32-3.903 19.995-8.985 4.649-6.538 6.095-11.383 6.095-29.093 0-17.949-1.446-22.789-6.095-29.335zm-57.572-17.947c6.845-7.538 18.296-15.772 37.577-15.772 19.246 0 30.731 8.234 37.541 15.772 9.51 10.423 13.42 20.622 13.42 47.023 0 26.684-3.91 36.883-13.42 47.304-6.81 7.524-18.295 15.762-37.541 15.762-19.281 0-30.733-8.238-37.578-15.762-9.5-10.421-13.4-20.62-13.4-47.304 0-26.401 3.9-36.6 13.4-47.024m178.289 17.948c-3.641-5.104-11.452-8.977-19.995-8.977-8.526 0-16.328 3.873-20.011 8.977-4.625 6.546-6.087 11.386-6.087 29.076 0 17.969 1.462 22.814 6.087 29.352 3.683 5.082 11.485 8.985 20.011 8.985 8.543 0 16.354-3.903 19.995-8.985 4.633-6.538 6.12-11.383 6.12-29.093 0-17.949-1.487-22.789-6.12-29.335zM997.99 82.888c6.828-7.538 18.296-15.772 37.551-15.772 19.272 0 30.724 8.234 37.568 15.772 9.501 10.423 13.42 20.622 13.42 47.023 0 26.684-3.919 36.883-13.42 47.304-6.844 7.524-18.296 15.762-37.568 15.762-19.255 0-30.723-8.238-37.551-15.762-9.535-10.421-13.428-20.62-13.428-47.304 0-26.401 3.893-36.6 13.428-47.024m107.662-13.822h26.327v13.089h-.08c7.785-9.816 19.002-14.795 32.186-14.795 10.006 0 18.305 3.527 25.846 9.33l-18.043 21.29c-5.852-4.357-9.713-6.092-16.053-6.092-12.226 0-23.856 7.74-23.856 25.664v72.575h-26.327V69.065m122.179-6.249c-12.242 0-22.167 9.908-22.167 22.128 0 12.221 9.925 22.128 22.167 22.128 12.244 0 22.169-9.907 22.169-22.128 0-12.22-9.925-22.128-22.169-22.128zm0 3.125c10.502 0 19.044 8.525 19.044 19.003s-8.543 19.003-19.044 19.003c-10.5 0-19.042-8.525-19.042-19.003s8.542-19.003 19.042-19.003"/><path d="M1227.474 83.455h-4.234v-8.274h5.367c.676 0 1.36.052 2.058.152a5.655 5.655 0 0 1 1.847.565c.537.275.974.672 1.313 1.187.336.52.507 1.215.507 2.088 0 1.03-.19 1.836-.568 2.407a3.409 3.409 0 0 1-1.52 1.281 6.607 6.607 0 0 1-2.176.505c-.815.06-1.68.089-2.594.089zm4.055 2.978c1.946-.202 3.577-.845 4.89-1.937 1.312-1.091 1.969-2.803 1.969-5.15 0-2.496-.747-4.36-2.238-5.591-1.492-1.232-3.786-1.847-6.886-1.847h-10.078V97.92h4.054V86.73h4.294l7.096 11.19h4.351l-7.452-11.487"/></g></svg>