<svg xmlns="http://www.w3.org/2000/svg" width="364.749" height="76.143"><path d="M57.375 1.839v41.977c0 14.018-6.205 19.839-20.759 19.839-14.555 0-20.76-5.821-20.76-19.839V0H1.838C.613 0 0 .614 0 1.839v42.666c0 23.441 14.937 31.638 36.616 31.638 21.678 0 36.615-8.197 36.615-31.638V0H59.212c-1.225 0-1.837.614-1.837 1.839M260.586 12.18c1.149 0 1.685-.382 2.068-1.225L266.715.919c.23-.611 0-.919-.614-.919h-56.455c-5.286 0-7.276 1.609-7.276 5.21v65.186c0 3.065 1.53 4.444 5.591 4.444h52.625c1.149 0 1.685-.384 2.068-1.225l4.061-10.036c.23-.613 0-.919-.614-.919H217.92V49.408c0-4.597 2.527-6.665 9.344-6.665h20.913c1.15 0 1.684-.382 2.068-1.225l3.907-9.652c.23-.613 0-.919-.613-.919H217.92V12.18h42.666M146.495 62.814h-27.661V49.101c0-4.596 2.527-6.664 9.346-6.664h18.315c8.809 0 11.26 3.371 11.26 10.266 0 6.893-2.451 10.111-11.26 10.111zm-27.661-50.788h24.75c8.272 0 10.571 3.116 10.571 9.575 0 6.46-2.299 9.576-10.571 9.576h-24.75v-19.15zm42.369 23.364c6.127-3.218 8.655-9.269 8.655-16.393C169.858 2.451 156.376 0 142.435 0h-31.866c-5.287 0-7.277 1.609-7.277 5.21v65.186c0 3.065 1.532 4.444 5.592 4.444h39.22c14.783 0 25.353-5.745 25.353-20.682 0-8.963-3.83-16.547-12.255-18.768m174.106-.69h-26.045V12.027h26.045c9.727 0 11.872 3.753 11.872 11.337 0 7.66-2.145 11.336-11.873 11.336zm29.26 38.838l-16.774-28.803c8.349-2.144 15.09-7.66 15.09-21.678C362.884 4.904 351.623 0 333.009 0H300.99c-5.285 0-7.277 1.609-7.277 5.21v67.791c0 1.225.613 1.839 1.838 1.839h13.712V53.009c0-4.596 2.527-6.665 9.346-6.665h13.787l15.167 27.27c.46.766.92 1.226 2.068 1.226h14.249c.996 0 .996-.844.689-1.302" fill="#fff"/></svg>