<svg xmlns="http://www.w3.org/2000/svg" width="758" height="128"><path d="M114.796 51c0 18.665-15.131 33.796-33.796 33.796S47.204 69.665 47.204 51 62.335 17.204 81 17.204 114.796 32.335 114.796 51z" fill="none" stroke="#fff" stroke-width="5.2"/><path d="M17.582 104.967l37.631-33.824L61.217 77l-33.971 37.485c-1.757 1.904-4.686 2.05-6.296.44l-3.661-3.661c-1.757-1.61-1.61-4.54.293-6.297zm84.586-40.975l-25.7-23.1c-.2-.2-.2-.5 0-.6l3.4-3.4c.4-.4.5-1 .2-1.4l-2.4-2.4c-.3-.3-.3-.8 0-1.2 1.1-1.5 2.8-3.6 5.2-5.5.9-.7.5-2-.5-1.6-3 .9-6.7 2.4-9.4 4.9-.1 0-.1.1-.2.1l-9.9 9.9c-.4.4-.5 1-.2 1.4l.8.8c0 .2-.1.5-.3.7-.2.2-.5.3-.7.3l-1.2-.4c-.3-.3-.9-.3-1.4.2l-2.4 2.4c-.4.4-.5 1-.2 1.4l6 5.7c.3.3.9.3 1.4-.2l2.4-2.4c.4-.4.5-1 .2-1.4l-.4-1.2c0-.2.1-.5.3-.7.2-.2.5-.3.7-.3l.8.8c.3.3.9.3 1.4-.2l1.7-1.7c.2-.2.5-.2.6 0l23.2 25.6c1.2 1.3 3.2 1.4 4.3.3l2.5-2.5c1.2-1.1 1.1-3.1-.2-4.3zm52.781-31.566V60.87h36.02v14.29h-36.02v39.144h-17.944v-96.1h60.61v14.223H154.95m71.502 13.69v68.186H209.97V46.117h16.482m2.26-19.872a9.353 9.353 0 0 1-.864 3.988 10.67 10.67 0 0 1-2.326 3.256c-.93.93-2.039 1.684-3.323 2.26a10.666 10.666 0 0 1-4.12.797c-1.419 0-2.77-.265-4.055-.797a11.273 11.273 0 0 1-3.256-2.26 11.274 11.274 0 0 1-2.26-3.256 10.014 10.014 0 0 1-.797-3.988c0-1.462.265-2.835.797-4.12.576-1.285 1.33-2.392 2.26-3.323a10.3 10.3 0 0 1 3.256-2.193 9.804 9.804 0 0 1 4.054-.864 9.96 9.96 0 0 1 4.12.864 10.107 10.107 0 0 1 3.324 2.193 10.45 10.45 0 0 1 2.326 3.323 9.959 9.959 0 0 1 .864 4.12m29.827 28.245a43.344 43.344 0 0 1 4.32-3.788 26.537 26.537 0 0 1 4.851-2.99 25.405 25.405 0 0 1 5.516-1.928c1.95-.487 4.076-.73 6.38-.73 3.722 0 7.023.642 9.903 1.927 2.88 1.24 5.272 3.012 7.177 5.316 1.95 2.26 3.412 4.985 4.387 8.175 1.019 3.145 1.528 6.623 1.528 10.434v43.397h-16.415V70.906c0-4.165-.953-7.377-2.858-9.637-1.905-2.304-4.807-3.456-8.706-3.456-2.836 0-5.494.643-7.975 1.928-2.481 1.284-4.83 3.035-7.045 5.25v49.312h-16.415V46.117h10.035c2.127 0 3.523.996 4.187 2.99l1.13 5.383m102.473 9.039c-1.86-2.26-3.899-3.855-6.114-4.785-2.171-.93-4.52-1.396-7.045-1.396-2.481 0-4.718.465-6.712 1.396-1.994.93-3.7 2.348-5.117 4.253-1.418 1.86-2.504 4.253-3.257 7.178-.753 2.88-1.13 6.291-1.13 10.234 0 3.988.31 7.377.93 10.168.665 2.747 1.596 5.007 2.792 6.78 1.196 1.727 2.658 2.99 4.386 3.787 1.728.754 3.655 1.13 5.782 1.13 3.412 0 6.314-.709 8.706-2.127 2.393-1.417 4.652-3.433 6.779-6.047V63.529m16.415-47.983v98.757h-10.035c-2.171 0-3.544-.997-4.12-2.99l-1.396-6.58c-2.747 3.146-5.915 5.693-9.504 7.643-3.544 1.95-7.687 2.924-12.427 2.924-3.722 0-7.134-.775-10.235-2.326-3.101-1.55-5.782-3.788-8.042-6.712-2.215-2.969-3.943-6.624-5.183-10.966-1.197-4.342-1.795-9.304-1.795-14.887 0-5.05.687-9.747 2.06-14.089 1.374-4.342 3.346-8.108 5.915-11.298 2.57-3.19 5.65-5.671 9.238-7.443 3.589-1.817 7.62-2.725 12.096-2.725 3.81 0 7.066.598 9.769 1.794a25.037 25.037 0 0 1 7.244 4.852V15.546h16.415m178.201 2.658l-29.84 96.1h-16.15l-21-65.662c-.576-1.595-1.108-3.544-1.595-5.848a105.59 105.59 0 0 1-.798 3.123 33.077 33.077 0 0 1-.864 2.725l-21.2 65.661h-16.216l-29.774-96.1h14.954c1.55.001 2.835.378 3.854 1.13 1.064.71 1.772 1.684 2.127 2.925l16.349 57.487a76.89 76.89 0 0 1 .997 4.652c.354 1.64.708 3.367 1.063 5.184.354-1.861.73-3.611 1.13-5.25.443-1.64.908-3.169 1.395-4.586l18.875-57.487c.354-1.02 1.04-1.95 2.06-2.791 1.063-.842 2.348-1.263 3.854-1.263h5.25c1.551 0 2.814.377 3.789 1.13.974.753 1.705 1.728 2.193 2.924l18.808 57.487c.93 2.747 1.772 5.914 2.525 9.503.576-3.5 1.218-6.668 1.927-9.503l16.35-57.487c.265-1.108.93-2.06 1.993-2.858 1.108-.797 2.415-1.196 3.921-1.196h14.023m31.333 26.849c5.05 0 9.637.82 13.757 2.46 4.165 1.639 7.71 3.965 10.633 6.977 2.969 3.013 5.25 6.69 6.846 11.032 1.595 4.342 2.392 9.194 2.392 14.555 0 5.405-.797 10.279-2.392 14.62-1.595 4.343-3.877 8.042-6.846 11.1-2.924 3.057-6.468 5.405-10.633 7.044-4.12 1.64-8.706 2.459-13.757 2.459-5.095 0-9.725-.82-13.89-2.459-4.165-1.64-7.731-3.987-10.7-7.045-2.924-3.057-5.206-6.756-6.845-11.098-1.595-4.342-2.392-9.216-2.392-14.621 0-5.361.797-10.213 2.392-14.555 1.64-4.341 3.921-8.019 6.845-11.032 2.969-3.012 6.535-5.338 10.7-6.978 4.165-1.64 8.795-2.459 13.89-2.459m0 57.62c5.671 0 9.858-1.905 12.56-5.716 2.748-3.81 4.121-9.392 4.121-16.747s-1.373-12.96-4.12-16.814c-2.703-3.855-6.89-5.782-12.56-5.782-5.76 0-10.036 1.95-12.827 5.848-2.747 3.855-4.12 9.437-4.12 16.748 0 7.31 1.373 12.893 4.12 16.747 2.79 3.81 7.066 5.716 12.826 5.716m61.636-44.727c2.127-4.076 4.652-7.266 7.577-9.57 2.924-2.348 6.38-3.522 10.367-3.522 3.146 0 5.671.687 7.576 2.06l-1.063 12.295c-.221.797-.554 1.373-.997 1.728-.399.31-.952.465-1.661.465-.665 0-1.662-.11-2.99-.332a22.28 22.28 0 0 0-3.789-.333c-1.817 0-3.434.266-4.852.798a12.287 12.287 0 0 0-3.854 2.326c-1.108.975-2.105 2.171-2.99 3.589-.843 1.418-1.64 3.035-2.393 4.851v42.002h-16.416V46.117h9.637c1.684 0 2.858.31 3.522.93.665.576 1.108 1.64 1.33 3.19l.996 7.71m50.515-42.401v56.556h3.057c1.108 0 1.972-.133 2.592-.399.665-.31 1.33-.908 1.994-1.794l16.947-20.935c.709-.93 1.484-1.639 2.326-2.126.886-.488 2.016-.731 3.39-.731h15.019l-21.2 25.32c-1.507 1.994-3.146 3.523-4.918 4.586.93.665 1.75 1.44 2.459 2.326a28.16 28.16 0 0 1 2.126 2.858l22.73 33.096h-14.821c-1.285 0-2.393-.2-3.323-.598-.93-.443-1.706-1.218-2.326-2.326l-17.412-25.852c-.62-1.02-1.263-1.684-1.928-1.994-.664-.31-1.661-.465-2.99-.465h-3.722v31.235h-16.415V15.546h16.415" fill="#fff"/></svg>